<?xml version="1.0" encoding="utf-8"?>
<!-- Generator: Adobe Illustrator 17.1.0, SVG Export Plug-In . SVG Version: 6.00 Build 0)  -->
<!DOCTYPE svg PUBLIC "-//W3C//DTD SVG 1.1//EN" "http://www.w3.org/Graphics/SVG/1.1/DTD/svg11.dtd">
<svg version="1.1" id="Layer_1" xmlns="http://www.w3.org/2000/svg" xmlns:xlink="http://www.w3.org/1999/xlink" x="0px" y="0px"
	 viewBox="0 0 755.2 296.4" enable-background="new 0 0 755.2 296.4" xml:space="preserve">
<g>
	<path fill="#201E1E" d="M751.7,293.8H741h-3.6v-3.6v-81.8c0-4.9,0-9.1-0.3-12.7c-0.3-3.6-0.6-6.5-1-8.8l0,0c-0.3-2.3-1-4.5-1.9-6.5
		c-0.6-2.3-1.9-4.5-3.2-6.8l0,0c-1.6-3.2-3.6-5.8-5.8-8.4c-2.3-2.6-4.9-4.5-8.1-6.5l0,0c-2.9-1.6-6.2-3.2-9.4-3.9
		c-3.2-1-6.8-1.3-10.4-1.3c-7.5,0-14,1.6-19.5,4.9c-5.5,3.2-10.1,7.8-13.6,14.3c-1.3,2.3-2.6,4.5-3.2,7.1c-1,2.3-1.6,4.9-1.9,7.5
		l0,0c-0.6,2.6-1,5.5-1.3,9.1c-0.3,3.6-0.3,7.8-0.3,12.3v81.8v3.6h-3.6h-10.7h-3.6v-3.6v-83.7c0-18.5,2.9-32.8,8.8-42.5
		c2.3-4.2,5.2-7.8,8.8-11c3.2-3.2,7.1-6.2,11.7-8.8l0,0c4.5-2.6,9.4-4.5,14.3-5.8c4.9-1.3,9.7-1.9,14.9-1.9c6.8,0,13,1,19.1,3.2
		c5.8,1.9,11.7,5.2,16.9,9.4l0,0c3.9,3.2,7.5,6.8,10.4,10.7c2.9,3.9,5.2,8.1,6.5,12.7l0,0c1.6,4.5,2.9,9.7,3.6,15.9
		s1.3,13.3,1.3,21.1v80.8v3.6H752L751.7,293.8z M594.6,206.8c-0.3-2.6-1-5.2-1.6-7.5c-1-3.6-2.3-6.8-3.9-10.4l0,0
		c-2.9-5.8-6.5-11-10.7-15.6c-4.2-4.5-9.1-8.4-14.6-11.7l0,0c-4.9-2.6-9.7-4.9-14.9-6.2c-5.2-1.3-10.4-1.9-15.9-1.9
		c-8.1,0-15.6,1.3-22.4,4.2c-6.8,2.6-13.3,6.8-19.5,12.3c-5.8,5.5-10.7,11.7-14,18.5c-2.9,5.5-4.5,11.7-5.5,18.5h123.3L594.6,206.8z
		 M600.4,259.1c-1.6,2.6-3.2,4.9-4.9,6.8c-1.6,2.3-3.6,4.2-5.5,6.2l0,0c-7.8,8.1-16.6,14.3-26.3,18.2s-20.1,6.2-31.5,6.2
		c-11.7,0-22.1-1.9-31.8-6.2s-18.5-10.4-26-18.8l0,0c-7.1-7.8-12.7-16.2-16.6-25.6c-3.6-9.1-5.5-19.1-5.5-29.5
		c0-7.8,1-15.3,3.2-22.4c1.9-7.1,5.2-14,9.4-20.8c3.6-5.5,7.5-10.4,12-14.9c4.5-4.2,9.7-8.1,15.3-11.4l0,0
		c6.2-3.6,12.7-6.2,19.5-8.1c6.8-1.9,13.6-2.6,20.8-2.6c10.4,0,20.1,1.6,29.2,5.2s17.2,8.8,25,15.6l0,0c5.8,5.2,10.7,11,14.6,17.9
		c3.9,6.8,7.1,14.3,9.4,22.4l0,0c0.6,2.9,1.3,5.5,1.6,8.1c0.3,2.6,0.6,4.9,0.6,6.8c0,2.3-0.3,3.9-0.6,5.5c-0.6,1.9-1.6,3.2-3.2,4.2
		l0,0c-1.3,0.6-2.9,1.3-5.2,1.3c-1.9,0.3-4.5,0.3-7.8,0.3H470.9c0.3,3.9,1.3,7.8,2.6,11.7l0,0c1.6,4.9,3.6,9.4,6.5,14l0,0
		c2.9,4.5,6.2,8.8,10.1,12.3s7.8,6.8,12.3,9.4c4.9,2.6,9.7,4.9,14.9,6.2c5.2,1.3,10.4,1.9,15.9,1.9s10.7-0.6,15.9-1.9
		c5.2-1.3,10.4-3.6,15.3-6.2l0,0c4.2-2.3,7.8-5.2,11.4-8.1c3.2-3.2,6.2-6.5,9.1-10.4l1.3-2.3l2.6,0.6l10.4,3.2l4.5,1.3l-2.3,3.9
		H600.4z M424.2,116.9v173.3v3.6h-3.6h-10.7h-3.6v-3.6V116.9v-3.6h3.6h10.7h3.6V116.9z M365.5,116.9v173.3v3.6h-3.6h-10.7h-3.6v-3.6
		V116.9v-3.6h3.6h10.7h3.6V116.9z M240.2,136.4c11.7,0,22.4,2.3,32.1,6.5s18.8,10.7,26.6,19.5c6.8,7.5,12,15.9,15.6,25
		s5.2,19.1,5.2,29.9c0,12-2.3,23-6.8,32.8c-4.5,10.1-11.4,18.8-20.4,26.6l0,0c-7.5,6.5-15.9,11.4-25,14.9
		c-9.1,3.2-18.5,4.9-28.9,4.9c-6.5,0-12.7-0.6-18.8-2.3c-6.2-1.6-12-3.9-17.9-7.1c-6.8-3.6-13-8.1-18.2-13.3
		c-5.2-5.2-9.7-11-13.3-17.5l0,0c-3.6-6.2-6.2-12.3-7.8-19.1c-1.6-6.5-2.6-13.6-2.6-20.8c0-12,2.3-23.4,6.8-33.4
		c4.5-10.1,11.4-19.1,20.4-26.9l0,0c0,0,0.6-0.6,1.3-1.3s1-1,1.3-1.3l2.3-1.9l2.3,1.9c1.3,1.3,2.6,2.3,3.9,3.6
		c1.3,1.3,2.6,2.6,3.9,3.9l2.6,2.9l-2.9,2.3c-1.3,1.3-2.9,2.3-4.2,3.6c-1.3,1.3-2.6,2.6-3.9,4.2l0,0c-5.2,5.8-9.1,12.3-11.7,19.5
		c-2.6,6.8-3.9,14.3-3.9,22.4c0,9.4,1.6,17.9,5.2,25.6c3.6,7.8,8.4,14.9,15.6,21.1l0,0c5.8,5.5,12.3,9.4,18.8,12.3
		c6.8,2.6,13.6,3.9,21.4,3.9c18.8,0,34.7-7.1,47.1-21.1l0,0c5.2-5.8,9.1-12.3,11.7-19.1c2.6-6.8,3.9-14.3,3.9-22.1
		c0-9.4-1.6-18.2-5.2-26c-3.6-7.8-8.4-14.9-15.6-21.4c-5.5-5.2-12-9.1-18.8-12c-6.8-2.6-14.3-4.2-22.4-4.2l0,0c-1,0-1.9,0-2.6,0
		c-0.6,0-1.6,0-2.6,0.3l-4.2,0.3l0.3-4.2c0-1.9,0.3-3.6,0.6-5.2s0.3-3.6,0.6-5.2l0.3-2.6l2.9-0.3c0.6,0,1.3,0,2.3,0
		c0.6,0,1.6,0,2.3,0l0,0L240.2,136.4z M146.1,129.9L98,278.2l0,0c-1,3.2-1.9,5.8-2.6,7.8c-1,2.3-1.9,3.9-2.6,5.2
		c-1,1.3-2.3,2.6-3.6,3.2c-1.3,1-2.9,1.3-4.5,1.3c-1.6,0-3.2-0.3-4.9-1.3c-1.3-1-2.6-1.9-3.6-3.6c-1-1.3-1.9-3.2-2.9-5.5
		c-1-1.9-1.6-4.5-2.6-7.5l0,0L1.9,61.4l-1.6-4.5h4.9h11.4h2.6l0.6,2.6L84.7,263l46.4-143.1l1.9-5.5l4.2,4.2c1.3,1.3,2.6,2.6,3.9,3.9
		c1.3,1.3,2.9,2.3,4.2,3.6l1.9,1.6l-0.6,2.3H146.1z"/>
</g>
<g>
	<path fill="#CE1728" d="M296,58.5c-1-3.2-2.9-5.8-5.2-8.4c-2.3-2.6-4.9-4.5-7.8-5.8c-3.2-1.6-6.5-2.3-9.7-2.3c-2.6,0-4.5,0.3-6.5,1
		l-8.1,2.6l5.2,9.4l2.9-1.6l3.9,44.5v0.6c3.9,0,7.5-1,10.7-2.6c3.2-1.6,6.2-3.9,8.8-6.8s4.5-6.2,5.8-9.7c1.3-3.6,1.9-7.5,1.9-11
		C297.9,65,297.3,61.7,296,58.5z M288.5,72.8c-0.6,1.9-1.3,3.9-2.3,5.5c-1,1.6-2.3,2.9-3.6,3.9c-1.3,1-2.9,1.3-4.5,1.3l-4.8-31.2
		c0,0-0.1,0-0.1,0v-0.6l0.1,0.6c2.5-0.6,4.5-1,5.1-1c1.9,0,3.6,0.3,4.9,1.3c1.3,1,2.3,2.3,3.2,3.9c1,1.3,1.6,2.9,1.9,4.9
		c0.3,1.6,0.6,3.6,0.6,5.2C289.2,68.5,289.2,70.8,288.5,72.8z"/>
	<polygon fill="#CE1728" points="301.8,48.4 330.1,41.6 331.7,50.4 312.5,54.6 315.8,68.9 330.4,64.6 333,73.1 317.4,76.3 319.4,88 
		347,86.1 347.6,100.3 314.8,99 307.4,56.5 303.8,56.5 301.8,48.7 	"/>
	<path fill="#CE1728" d="M380.7,53l-7.1,7.1c-0.3-1-0.6-1.9-1.6-2.6c-1-0.6-1.9-1.3-3.2-1.9c-1.3-0.3-2.3-0.6-3.6-0.6
		c-1.9,0-3.6,0.6-4.2,2.3c-0.6,1.6-1.3,3.6-1.6,6.2c0.3,3.9,1.6,5.8,3.9,5.8l11.4-1.9c0.6,0,1.3,0,1.6,0c2.6,0,4.5,1,6.2,3.2
		s2.3,4.9,2.3,8.4c0,3.2-0.6,6.5-2.3,9.7s-4.2,6.5-7.5,9.1c-1.6,1.3-3.6,1.9-5.8,1.9c-2.3,0-4.9-0.6-7.1-2.3
		c-2.3-1.6-4.5-3.2-6.2-5.8c-1.6-2.3-2.6-4.9-2.9-7.1l10.4-3.6c0,0.3,0,1-0.3,1.9c0,1.9,0.6,3.6,1.6,5.2c1,1.6,2.3,2.6,3.9,3.6
		c0.6,0.3,1,0.3,1.3,0.3c1.3,0,2.9-1,4.2-2.6c1.3-1.6,2.6-3.9,3.2-6.2c1-2.3,1.3-4.5,1.3-6.5c0-2.6-1-3.9-2.9-3.9l-14,2.6
		c-0.6,0-1,0-1.3,0c-2.9,0-4.9-1.6-6.5-4.5c-1.6-3.2-2.3-6.8-2.3-10.7c0-0.3,0-1,0-1.6s0-1.3,0-1.6c0.6-4.5,1.9-7.8,4.2-9.7
		c2.3-1.9,4.9-3.2,8.1-3.2c1.9,0,4.2,0.3,6.2,1.3c2.3,0.6,4.2,1.9,5.8,3.2c1.6,1.3,3.2,2.9,4.2,4.5H380.7z"/>
	<polygon fill="#CE1728" points="393.4,44.5 408.3,44.8 408.3,42.3 414.8,41.9 415.4,44.8 433.9,44.2 434.6,51.3 416.7,53.3 
		420,100.3 409.9,97.4 408.9,53.9 393,55.9 393.7,44.5 	"/>
	<polygon fill="#CE1728" points="445.9,42.6 454.1,42.9 455.7,100.7 445,98.4 	"/>
	<polygon fill="#CE1728" points="482.6,102.6 471.9,97.4 470.6,54.6 465.1,45.5 470.6,42.6 499.5,80.5 491.4,41.6 505.3,41.3 
		507.6,102.3 476.4,62 482.9,102.9 	"/>
	<polygon fill="#CE1728" points="527.4,102 515.7,100.7 518.3,84.1 515.1,85.1 515.7,77.3 519.6,76 523.8,41.6 532.9,39.3 
		554.7,94.5 541.7,100.3 537.8,80.2 528.4,82.5 527.7,102 	"/>
	<polygon fill="#FFFFFF" points="529.7,51.3 528.4,74.7 535.8,73.1 	"/>
	<path fill="#CE1728" d="M590.7,53l-7.1,7.1c-0.3-1-0.6-1.9-1.6-2.6c-1-0.6-1.9-1.3-3.2-1.9c-1.3-0.3-2.3-0.6-3.6-0.6
		c-1.9,0-3.6,0.6-4.2,2.3c-0.6,1.6-1.3,3.6-1.6,6.2c0.3,3.9,1.6,5.8,3.9,5.8l11.4-1.9c0.6,0,1.3,0,1.6,0c2.6,0,4.5,1,6.2,3.2
		c1.6,2.3,2.3,4.9,2.3,8.4c0,3.2-0.6,6.5-2.3,9.7c-1.6,3.2-4.2,6.5-7.5,9.1c-1.6,1.3-3.6,1.9-5.8,1.9c-2.3,0-4.9-0.6-7.1-2.3
		c-2.3-1.6-4.5-3.2-6.2-5.8c-1.6-2.3-2.6-4.9-2.9-7.1l10.4-3.6c0,0.3,0,1-0.3,1.9c0,1.9,0.6,3.6,1.6,5.2c1,1.6,2.3,2.6,3.9,3.6
		c0.6,0.3,1,0.3,1.3,0.3c1.3,0,2.9-1,4.2-2.6c1.3-1.6,2.6-3.9,3.2-6.2c1-2.3,1.3-4.5,1.3-6.5c0-2.6-1-3.9-2.9-3.9l-14,2.6
		c-0.6,0-1,0-1.3,0c-2.9,0-4.9-1.6-6.5-4.5c-1.6-3.2-2.3-6.8-2.3-10.7c0-0.3,0-1,0-1.6s0-1.3,0-1.6c0.6-4.5,1.9-7.8,4.2-9.7
		c2.3-1.9,4.9-3.2,8.1-3.2c1.9,0,4.2,0.3,6.2,1.3c2.3,0.6,4.2,1.9,5.8,3.2s3.2,2.9,4.2,4.5H590.7z"/>
	<path fill="#CE1728" d="M605.3,44.2l18.8-1l-0.3-2.3l5.8-0.6l0.6,1.9l18.8-1.6l1,6.8l-17.9,3.2l5.2,25.3c0.3,2.6,0.6,4.5,0.6,6.2
		c0,2.3-0.3,4.9-1,7.1c-0.6,2.3-1.9,4.5-3.2,6.8c-1.3,1.9-3.2,3.6-5.2,4.9c-1.9,1.3-4.2,1.9-6.8,1.9c-2.9,0-5.8-1-8.8-2.9
		s-5.2-4.5-7.1-7.8s-2.9-6.2-2.9-9.4c0-1.6,0.3-3.2,1-4.5l10.7,1.3c-0.6,1.3-1.3,2.9-1.3,4.5c0,1.6,0.3,3.2,1.3,4.9
		c0.6,1.6,1.6,2.9,2.9,3.9c1.3,1,2.6,1.6,3.9,1.9c2.9,0,5.2-1.3,6.5-3.9c1.6-2.6,2.3-5.8,2.3-9.1c0-1.6,0-2.6,0-3.2l-3.9-26
		l-20.1,3.2l-0.3-11.4L605.3,44.2z"/>
	<path fill="#CE1728" d="M695.8,60.4c-1.3-3.2-3.2-5.8-5.5-8.1c-2.6-2.3-5.2-4.2-8.1-5.5c-3.2-1.3-6.5-1.9-9.7-1.9
		c-2.6,0-4.9,0.3-6.8,1c-1.9,0.6-4.2,1.6-6.5,3.2l1.6,5.5c-1.9,4.5-3.2,9.1-3.2,14c0,3.9,0.3,6.2,0.3,6.8l0.6-0.3
		c0.3,2.9,1,5.8,1.9,8.8c0.6,2.9,1.9,5.5,3.6,7.8c1.6,2.3,3.6,4.2,5.8,5.8c2.3,1.6,4.9,2.3,8.1,2.3c0.6,0,1.3,0,2.3,0
		c3.9-0.3,7.5-1.9,10.1-4.5c2.9-2.6,4.9-5.8,6.2-9.7c1.3-3.9,1.9-8.1,1.9-12.3c0-1.3,0-2.3,0-2.9C698.1,66.9,697.1,63.7,695.8,60.4z
		 M685.1,87.7c-1,2.3-2.9,3.6-5.5,3.9c-2.6,0-4.5-1-5.8-2.6s-2.3-3.9-2.9-6.2c-0.6-2.6-1.3-5.2-1.6-8.8c-0.3-1.9-0.3-4.5-0.6-8.1
		c0-3.9,0.6-6.5,1.6-8.4s2.6-2.9,4.9-3.6l0.6,0.3c0.6-0.3,1.3-0.3,1.6-0.3c1.9,0,3.6,1,4.9,2.9s2.3,4.2,2.9,6.8
		c0.6,2.6,1,5.5,1.3,8.4c0.3,2.6,0.3,4.9,0.3,6.8C686.8,82.5,686.1,85.4,685.1,87.7z"/>
	<polygon fill="#CE1728" points="722.5,102.6 711.8,97.4 710.5,54.6 704.9,45.5 710.5,42.6 739.3,80.5 731.2,41.6 745.2,41.3 
		747.5,102.3 716.3,62 722.8,102.9 	"/>
	<path fill="#CE1728" d="M227.5,103.9v-0.3c13.6-15.3,18.5-37,11.4-57.8c-10.7-30.2-43.8-46.1-74-35.4c-30.2,10.7-46.1,43.8-35.4,74
		c7.1,20.1,24.3,33.8,43.8,37.6c35.1,18.5,63.3,85.7,63.3,85.7S209,141.2,227.5,103.9z M220.4,50.4c-12.3-19.8-36.7-29.5-60-22.4
		c-8.1,2.6-15.3,6.8-20.8,12.3c6.5-9.7,16.2-17.5,28.2-21.4c26-8.1,53.2,5.2,63.6,29.5c-3.9-0.3-7.8,0-11,1.6V50.4z"/>
</g>
</svg>
